<svg width="34" height="40" viewBox="0 0 34 40" fill="none" xmlns="http://www.w3.org/2000/svg">
<mask id="mask0_83_1110" style="mask-type:luminance" maskUnits="userSpaceOnUse" x="0" y="0" width="34" height="40">
<path d="M33.8933 0H0.106934V40H33.8933V0Z" fill="white"/>
</mask>
<g mask="url(#mask0_83_1110)">
<path fill-rule="evenodd" clip-rule="evenodd" d="M20.4614 14.2678C21.6919 13.657 23.2572 12.7576 24.8247 11.5253C25.1551 12.2088 25.1916 12.8051 25.021 13.2865C24.9003 13.6258 24.6728 13.921 24.3741 14.1558C24.0505 14.4094 23.646 14.5945 23.1991 14.6943C22.3511 14.8845 21.3608 14.7737 20.4614 14.2678ZM20.6748 20.5272L22.3034 21.464C18.978 23.3201 18.0738 26.7666 16.9997 30.1232C15.926 26.7666 15.0217 23.3198 11.6964 21.464L13.325 20.5272C13.6482 20.4055 13.8561 20.0907 13.8397 19.7469C13.6903 16.6031 14.5428 15.2127 15.6929 14.3401C16.1051 14.0275 16.5554 13.8706 16.9997 13.8706C17.444 13.8706 17.8943 14.0275 18.3065 14.3401C19.4562 15.2131 20.3087 16.6031 20.1597 19.7469C20.1433 20.0907 20.3519 20.4055 20.6748 20.5272ZM17.0001 0C18.8827 0.0504372 20.7701 0.414252 22.4081 1.12223C23.5425 1.61325 24.6005 2.26151 25.5591 3.03698C25.9919 3.38708 26.3483 3.7253 26.7409 4.11471C27.7997 4.15105 29.3471 2.97987 30.0655 1.88398C28.829 5.92006 23.1875 10.686 19.2819 12.5099C19.2804 12.5092 19.2793 12.5084 19.2782 12.5077C18.5773 11.9747 17.7889 11.7081 17.0004 11.7081C16.212 11.7081 15.4236 11.9747 14.7227 12.5077C14.7216 12.5084 14.7205 12.5095 14.719 12.5099C10.8126 10.686 5.17152 5.91969 3.93506 1.88398C4.65347 2.97987 6.20053 4.15142 7.25933 4.11471C7.65187 3.72567 8.00828 3.38708 8.44104 3.03698C9.39929 2.26151 10.4577 1.61325 11.5921 1.12223C13.2304 0.414252 15.1175 0.0504372 17.0001 0ZM13.5388 14.2678C12.3086 13.657 10.743 12.7576 9.17546 11.5253C8.84512 12.2088 8.80862 12.8051 8.97882 13.2865C9.09948 13.6258 9.32704 13.921 9.62572 14.1558C9.94973 14.4094 10.3541 14.5945 10.8011 14.6943C11.6491 14.8845 12.6397 14.7737 13.5388 14.2678Z" fill="black"/>
<path fill-rule="evenodd" clip-rule="evenodd" d="M26.5416 10.0156C27.4045 9.14851 28.165 8.18872 28.7762 7.33203L29.0868 7.91391C30.0864 9.90544 30.6059 11.8892 30.6059 14.1214L30.6037 17.6639L30.6223 19.5C30.6946 24.0082 31.6744 28.569 33.8933 32.7431L29.2507 29.0152L25.9659 34.3233L22.515 31.0883L17.0001 40.0001L11.4852 31.0887L8.03437 34.3237L4.74958 29.0156L0.106934 32.7435C2.32584 28.5694 3.30532 24.0082 3.37794 19.5004L3.39656 17.6642L3.39433 14.1218C3.39433 11.8892 3.91349 9.90581 4.91345 7.91428L5.22368 7.3324C5.8352 8.18872 6.59532 9.14851 7.45823 10.016L7.18859 10.5734C6.66496 11.6559 6.49179 12.8664 6.89959 14.0179C7.16252 14.7593 7.64221 15.3953 8.26081 15.8808C8.86153 16.3521 9.57249 16.67 10.3166 16.8368C10.8015 16.9455 11.2953 16.9904 11.7862 16.9752C11.6718 17.6216 11.6215 18.2917 11.6186 18.9749L7.23924 21.4937L10.6186 23.3799C10.8886 23.5309 11.146 23.7033 11.3873 23.8966C14.1734 26.3876 15.8486 33.757 16.9997 37.3566C18.1509 33.757 19.8261 26.3876 22.6122 23.8966C22.8535 23.7037 23.1109 23.5309 23.3809 23.3799L26.7603 21.4937L22.3809 18.9749C22.3776 18.2917 22.3276 17.6216 22.2133 16.9752C22.7042 16.9904 23.198 16.9455 23.6829 16.8368C24.427 16.67 25.138 16.3521 25.7387 15.8808C26.3573 15.3953 26.837 14.7593 27.0999 14.0179C27.5077 12.8668 27.3345 11.6563 26.8109 10.5734L26.5416 10.0156Z" fill="black"/>
</g>
</svg>
