<svg width="38" height="38" viewBox="0 0 38 38" fill="none" xmlns="http://www.w3.org/2000/svg">
<g clip-path="url(#clip0_83_1118)">
<path d="M32.8359 22.7061C32.5396 22.9102 32.1937 23.0307 31.8346 23.0548C31.4756 23.0789 31.1167 23.0058 30.7957 22.8431C30.0423 22.4174 29.6362 21.4193 29.6362 20.0592V15.8908C29.6362 13.8898 28.8436 12.4661 27.5178 12.0796C25.277 11.424 23.6038 14.1687 22.958 15.201L18.995 21.615V13.787C18.951 11.9817 18.3639 10.9005 17.2533 10.5776C16.5194 10.3623 15.4186 10.4504 14.3472 12.0845L5.48686 26.3069C4.30796 24.0514 3.69669 21.5425 3.706 18.9976C3.706 10.4259 10.5555 3.4541 18.995 3.4541C27.4346 3.4541 34.3085 10.4259 34.3085 18.9976V19.0416C34.3085 19.0416 34.3085 19.0709 34.3085 19.0856C34.3917 20.7442 33.8535 22.0651 32.8408 22.7061H32.8359ZM37.7284 19.0024V18.9193C37.6599 8.4738 29.284 0 18.995 0C8.70612 0 0.28125 8.52273 0.28125 18.9976C0.28125 29.4724 8.67677 38 18.995 38C23.7274 37.9998 28.2798 36.1858 31.7155 32.9314C32.049 32.6172 32.2453 32.1842 32.2617 31.7263C32.2782 31.2684 32.1136 30.8225 31.8036 30.4851C31.6552 30.321 31.4759 30.1879 31.2758 30.0933C31.0758 29.9988 30.8591 29.9448 30.6381 29.9343C30.4171 29.9238 30.1963 29.9572 29.9882 30.0324C29.7802 30.1076 29.589 30.2232 29.4258 30.3726C27.9466 31.7757 26.1992 32.8655 24.2883 33.5764C22.3775 34.2874 20.3427 34.6049 18.3061 34.5098C16.2695 34.4148 14.2731 33.9092 12.4368 33.0233C10.6005 32.1375 8.96207 30.8898 7.61999 29.355L15.5948 16.5366V22.4517C15.5948 25.2942 16.6956 26.214 17.6202 26.4831C18.5449 26.7522 19.9589 26.5662 21.4413 24.1591L25.8445 17.0308C25.9815 16.8008 26.1136 16.6051 26.231 16.4339V20.0592C26.231 22.7159 27.2976 24.8392 29.1665 25.8862C30.0164 26.345 30.974 26.5666 31.9389 26.5279C32.9039 26.4891 33.8407 26.1914 34.651 25.666C36.7059 24.3304 37.8262 21.9135 37.7088 19.0024H37.7284Z" fill="black"/>
</g>
<defs>
<clipPath id="clip0_83_1118">
<rect width="37.4374" height="38" fill="white" transform="translate(0.28125)"/>
</clipPath>
</defs>
</svg>
