<svg width="38" height="42" viewBox="0 0 38 42" fill="none" xmlns="http://www.w3.org/2000/svg">
<g clip-path="url(#clip0_83_1122)">
<path d="M15.0671 9.55769C14.612 9.49267 14.5903 9.471 14.807 9.44933C15.2188 9.38432 16.1724 9.471 16.8442 9.62271C18.4046 9.99113 19.8132 10.9447 21.3086 12.6134L21.6987 13.0685L22.2622 12.9818C24.6677 12.5917 27.1383 12.8952 29.1971 13.8487C29.7606 14.1088 30.6491 14.6289 30.7575 14.7589C30.8009 14.8023 30.8659 15.084 30.9092 15.3657C31.0609 16.3843 30.9959 17.1428 30.6708 17.728C30.4974 18.053 30.4974 18.1397 30.6058 18.4215C30.6925 18.6382 30.9526 18.7899 31.1909 18.7899C31.7111 18.7899 32.2529 17.9664 32.5129 16.8178L32.6213 16.3626L32.8163 16.5794C33.9216 17.8147 34.7885 19.5267 34.9185 20.7404L34.9618 21.0654L34.7668 20.7837C34.4417 20.2852 34.1383 19.9602 33.7266 19.6784C32.9897 19.18 32.2095 19.0283 30.1507 18.9199C28.2869 18.8116 27.225 18.6599 26.1848 18.3131C24.4077 17.728 23.4974 16.9695 21.3953 14.1738C20.4634 12.9385 19.8783 12.2667 19.2931 11.7032C18.0145 10.4679 16.7358 9.81775 15.0671 9.55769Z" fill="black"/>
<path d="M31.2126 12.3084C31.2559 11.4848 31.3643 10.943 31.6027 10.4446C31.6894 10.2495 31.7761 10.0762 31.7977 10.0762C31.8194 10.0762 31.7761 10.2279 31.7111 10.4012C31.5377 10.878 31.516 11.5499 31.6244 12.3084C31.7761 13.2836 31.8411 13.4136 32.8813 14.4756C33.3581 14.974 33.9216 15.6025 34.1383 15.8625L34.5067 16.3393L34.1383 15.9926C33.6832 15.5591 32.6429 14.7356 32.4046 14.6273C32.2529 14.5406 32.2312 14.5406 32.1228 14.6489C32.0361 14.7356 32.0145 14.8656 32.0145 15.4941C31.9928 16.4694 31.8628 17.0762 31.5377 17.7047C31.3643 18.0297 31.3426 17.9647 31.4943 17.5963C31.6027 17.3146 31.6244 17.1845 31.6244 16.2526C31.6244 14.3672 31.4077 13.9121 30.0857 13.1536C29.7606 12.9585 29.1971 12.6768 28.872 12.5251C28.5253 12.3734 28.2652 12.2434 28.2869 12.2434C28.3302 12.2 29.6089 12.5684 30.1073 12.7852C30.8659 13.0886 30.9959 13.1102 31.0826 13.0886C31.1476 13.0235 31.1909 12.8502 31.2126 12.3084Z" fill="black"/>
<path d="M15.9551 15.5379C15.0449 14.2809 14.4598 12.3305 14.5898 10.8784L14.6332 10.4233L14.8499 10.4667C15.24 10.5317 15.9118 10.7918 16.2369 10.9868C17.1037 11.5069 17.4938 12.2221 17.8623 13.9992C17.9706 14.5193 18.1223 15.1261 18.1873 15.3212C18.2957 15.6462 18.7075 16.4048 19.0542 16.8815C19.2926 17.2283 19.1409 17.4017 18.5991 17.3583C17.7756 17.2716 16.6703 16.5131 15.9551 15.5379Z" fill="black"/>
<path d="M30.1069 24.9663C25.8159 23.2326 24.2988 21.7372 24.2988 19.2016C24.2988 18.8332 24.3205 18.5298 24.3205 18.5298C24.3422 18.5298 24.4939 18.6598 24.6889 18.8115C25.5558 19.505 26.531 19.8084 29.24 20.1985C30.822 20.4369 31.7323 20.6103 32.5558 20.892C35.1781 21.7589 36.8035 23.536 37.1936 25.9415C37.3019 26.635 37.2369 27.957 37.0635 28.6505C36.9118 29.1923 36.4784 30.1892 36.37 30.2109C36.3484 30.2109 36.305 30.1025 36.305 29.9292C36.2617 29.019 35.8066 28.1521 35.0481 27.4803C34.1378 26.7001 32.9676 26.1149 30.1069 24.9663Z" fill="black"/>
<path d="M27.0729 25.6808C27.0295 25.3558 26.9212 24.944 26.8562 24.7706L26.7478 24.4456L26.9428 24.6839C27.2246 25.009 27.4413 25.3991 27.6363 25.9409C27.788 26.3527 27.788 26.4827 27.788 27.1545C27.788 27.8047 27.7664 27.9564 27.6363 28.3248C27.4196 28.91 27.1596 29.3217 26.7261 29.7768C25.9459 30.5787 24.9274 31.0121 23.4753 31.2072C23.2153 31.2288 22.4784 31.2939 21.8283 31.3372C20.2029 31.4239 19.1193 31.5973 18.1441 31.944C18.014 31.9873 17.884 32.0307 17.8623 32.009C17.819 31.9657 18.4908 31.5756 19.0326 31.3155C19.7911 30.9471 20.5713 30.7521 22.2834 30.4487C23.1286 30.3186 23.9955 30.1452 24.2122 30.0586C26.3577 29.3867 27.4196 27.718 27.0729 25.6808Z" fill="black"/>
<path d="M29.0455 29.1712C28.482 27.9359 28.352 26.7656 28.6554 25.6603C28.6987 25.552 28.7421 25.4436 28.7854 25.4436C28.8288 25.4436 28.9588 25.5086 29.0888 25.5953C29.3489 25.7687 29.8907 26.0721 31.2777 26.8306C33.0331 27.7842 34.03 28.521 34.7235 29.3662C35.3303 30.103 35.6987 30.9482 35.8721 31.9885C35.9805 32.5736 35.9154 33.9823 35.7637 34.5674C35.287 36.4095 34.2034 37.8832 32.6213 38.7284C32.3829 38.8585 32.1879 38.9452 32.1662 38.9452C32.1445 38.9452 32.2312 38.7284 32.3613 38.4684C32.8814 37.3631 32.9464 36.3012 32.5563 35.1092C32.3179 34.3724 31.8195 33.4839 30.8226 31.9885C29.6306 30.2548 29.3489 29.7996 29.0455 29.1712Z" fill="black"/>
<path d="M12.8994 35.8009C14.5032 34.4573 16.4753 33.5037 18.2957 33.2003C19.0759 33.0703 20.3762 33.1136 21.0914 33.3087C22.24 33.6121 23.2803 34.2622 23.822 35.0641C24.3422 35.8443 24.5806 36.5161 24.8189 38.0114C24.9056 38.5966 25.014 39.2034 25.0357 39.3334C25.209 40.1136 25.5558 40.7204 25.9892 41.0455C26.6611 41.544 27.8313 41.5656 28.9799 41.1322C29.175 41.0672 29.3484 41.0022 29.3484 41.0238C29.3917 41.0672 28.8066 41.4573 28.4165 41.6523C27.8747 41.934 27.4412 42.0207 26.8561 42.0207C25.8159 42.0207 24.9273 41.4789 24.2121 40.3953C24.0604 40.1786 23.757 39.5501 23.497 38.965C22.7385 37.2096 22.3484 36.6895 21.4598 36.1043C20.6796 35.6059 19.6827 35.4975 18.9242 35.8659C17.9273 36.3427 17.6672 37.6214 18.3607 38.4015C18.6425 38.7266 19.1626 38.9867 19.596 39.0517C20.3979 39.1601 21.0914 38.5316 21.0914 37.7297C21.0914 37.2096 20.8963 36.9062 20.3762 36.6678C19.6827 36.3644 18.9242 36.7111 18.9459 37.383C18.9459 37.6647 19.0759 37.8381 19.3576 37.9681C19.531 38.0548 19.531 38.0548 19.401 38.0331C18.7725 37.9031 18.6208 37.1229 19.1193 36.6245C19.7261 36.0176 21.0047 36.2777 21.4381 37.1229C21.6115 37.4697 21.6332 38.1632 21.4815 38.5966C21.1131 39.5501 20.0728 40.0486 19.0109 39.7669C18.2957 39.5718 17.9923 39.3768 17.1255 38.4882C15.6084 36.9279 15.0233 36.6245 12.8561 36.2994L12.4443 36.2344L12.8994 35.8009Z" fill="black"/>
<path fill-rule="evenodd" clip-rule="evenodd" d="M1.5005 0.931889C6.55004 7.06502 14.3302 16.6006 14.7203 17.1207C15.0454 17.5542 14.9154 17.9659 14.3736 18.2694C14.0702 18.4427 13.4417 18.6161 13.1383 18.6161C12.7915 18.6161 12.3798 18.4427 12.098 18.161C11.903 17.9659 11.0578 16.7306 9.15066 13.7616C7.69864 11.4861 6.46335 9.60062 6.44168 9.57895C6.35499 9.5356 6.35499 9.5356 8.99895 14.2601C10.6677 17.2291 11.2095 18.291 11.2095 18.4211C11.2095 18.7028 11.1228 18.8545 10.776 19.2446C10.1909 19.8947 9.93084 20.6316 9.7358 22.1703C9.51908 23.8824 8.93394 25.096 7.26521 27.1548C6.28998 28.3684 6.13827 28.5851 5.89988 29.0836C5.59648 29.6904 5.50979 30.0372 5.46645 30.8173C5.4231 31.6409 5.50979 32.161 5.74818 32.9412C5.9649 33.6347 6.20329 34.0898 6.78843 34.9783C7.28688 35.7585 7.59029 36.3437 7.59029 36.5604C7.59029 36.7337 7.63363 36.7337 8.41381 36.5604C10.2776 36.1269 11.8163 35.3901 12.6615 34.4799C13.1816 33.9164 13.3116 33.613 13.3116 32.8328C13.3116 32.3344 13.29 32.226 13.1599 31.9226C12.9432 31.4458 12.5315 31.0557 11.6429 30.4489C10.4726 29.6471 9.97419 28.9969 9.84416 28.13C9.7358 27.3932 9.86583 26.8947 10.516 25.5294C11.1878 24.1207 11.3612 23.5356 11.4695 22.1053C11.5346 21.195 11.6429 20.8266 11.903 20.5449C12.1847 20.2415 12.4231 20.1331 13.0949 20.0464C14.2002 19.8947 14.9154 19.613 15.4788 19.0712C15.9773 18.6161 16.194 18.161 16.2157 17.4892L16.2373 16.9907L15.9556 16.6873C14.937 15.517 0.828675 0 0.763659 0C0.741987 0 1.08874 0.411765 1.5005 0.931889ZM8.15375 31.7492C8.39214 31.3375 8.26211 30.8173 7.87202 30.5573C7.5036 30.3189 6.94013 30.4272 6.94013 30.7523C6.94013 30.839 6.98347 30.9257 7.1135 30.969C7.30855 31.0774 7.33022 31.1858 7.17852 31.4241C7.02682 31.6625 7.02682 31.8793 7.22186 32.031C7.52527 32.2694 7.93703 32.1393 8.15375 31.7492Z" fill="black"/>
<path fill-rule="evenodd" clip-rule="evenodd" d="M16.9303 20.3506C16.4102 20.5023 15.9117 21.0658 15.76 21.6292C15.6733 21.976 15.7167 22.6045 15.8684 22.7995C16.1068 23.1029 16.3235 23.1896 16.9303 23.1896C18.1222 23.1896 19.1408 22.6695 19.2492 22.041C19.3575 21.5209 18.9024 20.8057 18.2739 20.4806C17.9489 20.3072 17.277 20.2422 16.9303 20.3506ZM18.3173 21.4342C18.4907 21.1741 18.4256 20.8924 18.1006 20.6973C17.5154 20.3289 16.6269 20.6323 16.6269 21.1958C16.6269 21.4775 17.082 21.7809 17.5154 21.7809C17.7972 21.7809 18.1872 21.6075 18.3173 21.4342Z" fill="black"/>
</g>
<defs>
<clipPath id="clip0_83_1122">
<rect width="36.4737" height="42" fill="white" transform="translate(0.763184)"/>
</clipPath>
</defs>
</svg>
