<svg width="44" height="42" viewBox="0 0 44 42" fill="none" xmlns="http://www.w3.org/2000/svg">
<path fill-rule="evenodd" clip-rule="evenodd" d="M17.7514 4.80398C15.5907 5.93727 13.8231 6.89637 13.8235 6.93542C13.8245 7.03604 19.009 9.68009 19.193 9.67361C19.2766 9.67087 19.8839 9.38929 20.5423 9.04828L21.7396 8.42818L23.0472 9.10502L24.3548 9.78199L26.4961 8.81311C29.7226 7.35311 30.0577 7.19311 30.0052 7.13944C29.9356 7.06806 28.7784 6.44212 25.6385 4.77751C24.1211 3.973 22.6483 3.18428 22.3655 3.02458C22.0826 2.86472 21.8128 2.73632 21.7656 2.7388C21.7183 2.74129 19.912 3.6707 17.7514 4.80398ZM8.27495 9.74528L6.02584 10.9153V16.0497C6.02584 18.8736 6.05532 21.184 6.09163 21.184C6.12795 21.184 7.23434 20.701 8.55061 20.1105L10.9439 19.0371V13.6252L12.1135 14.2668C13.0147 14.7607 13.9166 15.2536 14.8188 15.7456L16.3545 16.5829L17.0378 16.2716C17.4664 16.0761 17.8942 15.8788 18.321 15.6795C18.6508 15.5248 19.4605 15.1575 20.1203 14.8633C20.7801 14.5689 21.3908 14.2727 21.4774 14.2053C21.5924 14.1157 20.1897 13.3351 16.2891 11.3181C13.349 9.79769 10.8491 8.55849 10.7338 8.56449C10.6185 8.57049 9.51206 9.10175 8.27495 9.74528ZM30.4103 10.0738C28.8785 10.7701 27.6241 11.3677 27.6227 11.4017C27.6214 11.4358 28.4562 11.9357 29.478 12.5124C30.4998 13.0894 31.3359 13.5922 31.3359 13.6301C31.3359 13.668 30.4317 14.1091 29.3267 14.6107C28.2215 15.1122 25.4282 16.3826 23.1191 17.4337L15.382 20.9553C13.4358 21.8413 11.6814 22.6397 11.4835 22.73C7.50811 24.5422 6.41551 25.045 6.26548 25.1313C6.11458 25.2182 6.08045 25.723 6.05358 28.2569L6.02148 31.2791L8.03284 32.3111L10.0441 33.343L12.833 32.0756C14.367 31.3786 15.622 30.7719 15.622 30.727C15.622 30.6823 15.3385 30.4966 14.9922 30.3136C14.6458 30.1306 13.9305 29.7259 13.4027 29.4136C12.875 29.1014 12.3488 28.815 12.2332 28.7769C12.1177 28.7391 12.0249 28.6729 12.0268 28.6296C12.0287 28.5864 13.2568 27.9991 14.7558 27.3241C17.6672 26.0133 19.8952 25.0031 24.6785 22.8249C26.8173 21.8511 28.9567 20.8782 31.0959 19.9054C32.9762 19.0507 35.1624 18.0527 35.9541 17.6874L37.3935 17.0232L37.4254 13.9666L37.4576 10.9101L35.4176 9.85585C34.2955 9.27598 33.3366 8.80302 33.2862 8.80477C33.236 8.80638 31.942 9.37742 30.4103 10.0738ZM36.8471 21.1008C36.5464 21.2486 35.9528 21.5256 35.5277 21.7159C35.1026 21.9064 34.296 22.2729 33.735 22.5305L32.7155 22.9988L32.6922 25.6822C32.6794 27.158 32.6255 28.359 32.5722 28.3513C32.4516 28.3331 30.5406 27.3462 28.6198 26.3097C27.2333 25.5617 27.1462 25.532 26.8204 25.6945C26.6321 25.7886 25.5063 26.2968 24.3188 26.8244C23.1312 27.352 22.1209 27.8181 22.0732 27.8602C22.026 27.9023 24.4159 29.2066 27.3846 30.7591L32.7822 33.5816L35.0879 32.3804C36.356 31.72 37.4342 31.1174 37.4839 31.0417C37.5956 30.8713 37.586 20.8084 37.4741 20.8221C37.4298 20.8274 37.1477 20.953 36.8471 21.1008ZM24.0788 32.912C23.6788 33.0851 23.279 33.2586 22.8793 33.4322C21.6722 33.9581 21.9087 33.9755 20.4726 33.2557C19.5161 32.7763 19.1038 32.6283 18.9249 32.7001C18.7907 32.7539 17.6353 33.2773 16.3574 33.8632C15.0795 34.4491 13.9896 34.9284 13.9355 34.9284C13.3992 34.9284 14.2907 35.4646 17.7302 37.2117L21.7639 39.2605L23.4612 38.4169C24.3946 37.9528 26.2774 37.0234 27.6452 36.3518C29.0128 35.6799 30.1151 35.1127 30.0944 35.0915C30.0737 35.0701 28.9276 34.4774 27.5476 33.7746L25.0384 32.4967L24.0788 32.912Z" fill="black"/>
</svg>
