<svg width="40" height="38" viewBox="0 0 40 38" fill="none" xmlns="http://www.w3.org/2000/svg">
<path d="M8.87729 18.0617C8.87734 17.8492 8.91934 17.6388 9.00093 17.4426C9.08249 17.2465 9.202 17.0683 9.35261 16.9184C9.50322 16.7685 9.68194 16.6499 9.87853 16.5693C10.0751 16.4886 10.2857 16.4477 10.4982 16.4487L13.1855 16.4574C13.614 16.4574 14.025 16.6276 14.3279 16.9306C14.6309 17.2336 14.8011 17.6445 14.8011 18.073V28.2343C15.1036 28.1446 15.4922 28.0487 15.9174 27.9487C16.2127 27.8794 16.4759 27.7122 16.6643 27.4745C16.8527 27.2366 16.9552 26.9423 16.9551 26.6388V14.0341C16.9551 13.6056 17.1253 13.1946 17.4282 12.8916C17.7312 12.5886 18.1421 12.4183 18.5707 12.4182H21.2633C21.6918 12.4183 22.1028 12.5886 22.4058 12.8916C22.7087 13.1946 22.8789 13.6056 22.8789 14.0341V25.7325C22.8789 25.7325 23.5531 25.4598 24.2098 25.1826C24.4537 25.0793 24.6619 24.9067 24.8083 24.6859C24.9548 24.4652 25.033 24.2063 25.0332 23.9414V9.99518C25.0332 9.56675 25.2033 9.15587 25.5063 8.85292C25.8092 8.54994 26.22 8.3797 26.6484 8.37961H29.3412C29.7696 8.37961 30.1807 8.54984 30.4834 8.85279C30.7864 9.15578 30.9568 9.5667 30.9568 9.99518V21.4796C33.2912 19.7877 35.6569 17.7529 37.5343 15.3061C37.8067 14.951 37.9871 14.5339 38.0588 14.0922C38.1309 13.6505 38.0924 13.1978 37.9471 12.7745C37.078 10.2742 35.6966 7.98274 33.8913 6.0469C32.0859 4.11106 29.896 2.57342 27.4623 1.5324C25.0285 0.491383 22.4042 -0.0300934 19.7573 0.00134112C17.1105 0.0327744 14.4993 0.61643 12.0909 1.71495C9.68252 2.81347 7.52998 4.40267 5.77105 6.38085C4.01212 8.35902 2.68551 10.6826 1.87614 13.2029C1.06676 15.7232 0.792436 18.3847 1.07072 21.0171C1.349 23.6496 2.17376 26.1949 3.49221 28.4903C3.7219 28.8862 4.05978 29.2084 4.4662 29.419C4.87266 29.6296 5.33072 29.7198 5.78664 29.679C6.29597 29.6343 6.93012 29.5707 7.68409 29.4823C8.0123 29.4451 8.31533 29.2883 8.53544 29.042C8.75554 28.7958 8.87734 28.4772 8.87761 28.1469V18.0617" fill="black"/>
<path d="M8.81836 34.36C11.6567 36.4249 15.0109 37.6643 18.5099 37.941C22.0089 38.2179 25.5163 37.5212 28.6439 35.9284C31.7716 34.3354 34.3978 31.9081 36.2315 28.9153C38.0652 25.9225 39.0353 22.4807 39.0343 18.9708C39.0343 18.5328 39.014 18.0995 38.9849 17.6687C32.0336 28.0359 19.199 32.8827 8.81901 34.3583" fill="black"/>
</svg>
