<svg width="31" height="30" viewBox="0 0 31 30" fill="none" xmlns="http://www.w3.org/2000/svg">
<path fill-rule="evenodd" clip-rule="evenodd" d="M27.6655 0.644703C28.0361 0.48869 28.4419 0.434882 28.8404 0.488879C29.2389 0.542877 29.6157 0.702706 29.9315 0.951731C30.2473 1.20076 30.4906 1.52987 30.636 1.90483C30.7815 2.27978 30.8237 2.68686 30.7585 3.0837L27.3565 23.7192C27.0265 25.7097 24.8425 26.8512 23.017 25.8597C21.49 25.0302 19.222 23.7522 17.182 22.4187C16.162 21.7512 13.0375 19.6137 13.4215 18.0927C13.7515 16.7922 19.0015 11.9052 22.0015 8.9997C23.179 7.8582 22.642 7.1997 21.2515 8.2497C17.7985 10.8567 12.2545 14.8212 10.4215 15.9372C8.80447 16.9212 7.96147 17.0892 6.95347 16.9212C5.11447 16.6152 3.40897 16.1412 2.01697 15.5637C0.135969 14.7837 0.227469 12.1977 2.01547 11.4447L27.6655 0.644703Z" fill="black"/>
</svg>
