<svg width="37" height="37" viewBox="0 0 37 37" fill="none" xmlns="http://www.w3.org/2000/svg">
<g id="mingcute:telegram-fill">
<g id="Group">
<path id="Vector" fill-rule="evenodd" clip-rule="evenodd" d="M30.2465 6.78582C30.6172 6.6298 31.0229 6.576 31.4215 6.62999C31.82 6.68399 32.1968 6.84382 32.5126 7.09284C32.8284 7.34187 33.0716 7.67099 33.2171 8.04594C33.3625 8.42089 33.4048 8.82798 33.3395 9.22482L29.9375 29.8603C29.6075 31.8508 27.4235 32.9923 25.598 32.0008C24.071 31.1713 21.803 29.8933 19.763 28.5598C18.743 27.8923 15.6185 25.7548 16.0025 24.2338C16.3325 22.9333 21.5825 18.0463 24.5825 15.1408C25.76 13.9993 25.223 13.3408 23.8325 14.3908C20.3795 16.9978 14.8355 20.9623 13.0025 22.0783C11.3855 23.0623 10.5425 23.2303 9.53452 23.0623C7.69552 22.7563 5.99002 22.2823 4.59802 21.7048C2.71702 20.9248 2.80852 18.3388 4.59652 17.5858L30.2465 6.78582Z" fill="black"/>
</g>
</g>
</svg>
